<svg width="100" height="100" viewBox="0 0 100 100" xmlns="http://www.w3.org/2000/svg">
  <rect width="100" height="100" fill="#f3f4f6"/>
  <g fill="#9ca3af">
    <!-- Thread/needle icon -->
    <path d="M50 20c-2 0-3 1-3 3v15l-10 5c-2 1-3 3-3 5v20c0 3 2 5 5 5h22c3 0 5-2 5-5V48c0-2-1-4-3-5l-10-5V23c0-2-1-3-3-3z"/>
    <!-- Decorative stitches -->
    <circle cx="35" cy="55" r="2"/>
    <circle cx="45" cy="60" r="2"/>
    <circle cx="55" cy="60" r="2"/>
    <circle cx="65" cy="55" r="2"/>
  </g>
  <text x="50" y="85" text-anchor="middle" fill="#6b7280" font-family="Arial, sans-serif" font-size="10">Bordado</text>
</svg>